<?xml version="1.0" standalone="no"?>
<!DOCTYPE svg PUBLIC "-//W3C//DTD SVG 20010904//EN"
 "http://www.w3.org/TR/2001/REC-SVG-20010904/DTD/svg10.dtd">
<svg version="1.0" xmlns="http://www.w3.org/2000/svg"
 width="1050.000000pt" height="1050.000000pt" viewBox="0 0 1050.000000 1050.000000"
 preserveAspectRatio="xMidYMid meet">
<metadata>
Created by potrace 1.11, written by Peter Selinger 2001-2013
</metadata>
<g transform="translate(0.000000,1050.000000) scale(0.100000,-0.100000)"
fill="#000000" stroke="none">
<path d="M5157 10090 c-78 -84 -83 -126 -22 -198 43 -51 76 -63 213 -73 186
-15 364 -37 473 -59 416 -85 860 -294 1161 -548 121 -103 334 -316 435 -435
234 -279 433 -683 538 -1092 48 -188 59 -314 59 -660 -1 -343 -13 -465 -68
-665 -226 -824 -755 -1463 -1509 -1826 -65 -31 -120 -55 -122 -53 -2 2 35 74
81 159 240 442 369 899 381 1350 10 346 -20 657 -87 917 -185 714 -606 1334
-1190 1750 -378 270 -834 460 -1305 544 -152 27 -591 38 -809 19 -492 -41
-992 -221 -1411 -508 -319 -218 -666 -568 -880 -886 -121 -182 -129 -225 -54
-310 52 -59 96 -73 153 -47 49 21 85 61 165 179 173 257 499 597 737 767 300
215 787 416 1139 470 56 9 208 18 345 22 314 7 540 -7 710 -46 987 -228 1774
-958 2059 -1911 88 -297 109 -427 118 -758 6 -201 -7 -412 -26 -412 -3 0 -26
39 -51 87 -132 254 -354 532 -615 770 -384 350 -862 603 -1365 721 -264 62
-405 77 -730 76 -243 0 -306 -3 -430 -22 -675 -104 -1253 -396 -1730 -872
-177 -176 -275 -295 -405 -490 -441 -660 -613 -1523 -455 -2285 83 -401 249
-829 381 -979 71 -80 148 -84 220 -10 31 32 34 41 34 92 0 50 -9 77 -74 217
-224 485 -291 766 -291 1219 0 398 41 668 144 959 146 409 355 739 665 1047
157 157 256 238 431 355 263 176 560 307 870 385 140 35 222 47 405 60 482 34
810 -10 1235 -166 135 -50 415 -191 549 -276 112 -72 143 -99 128 -115 -5 -4
-86 -11 -180 -14 -209 -9 -266 -14 -427 -40 -418 -68 -850 -236 -1203 -469
-159 -104 -230 -162 -405 -327 -371 -350 -592 -677 -777 -1153 -125 -320 -177
-556 -197 -895 -13 -226 -1 -536 27 -702 86 -501 323 -1036 626 -1413 99 -124
366 -394 497 -503 468 -389 1116 -633 1814 -683 124 -9 160 -1 209 43 85 77
91 131 23 203 -57 60 -73 65 -269 80 -287 21 -483 59 -725 139 -660 221 -1215
685 -1559 1306 -160 289 -284 668 -312 959 -15 161 -6 751 14 861 50 276 173
611 318 863 275 480 676 863 1164 1113 215 110 209 110 146 -2 -234 -422 -376
-854 -402 -1225 -13 -180 -6 -718 11 -829 29 -198 134 -542 236 -772 420 -951
1272 -1616 2303 -1798 227 -40 756 -46 976 -11 472 75 1013 299 1370 566 221
166 523 473 698 710 73 97 177 282 177 312 0 66 -71 151 -137 164 -68 14 -130
-40 -253 -222 -189 -277 -421 -515 -712 -726 -806 -589 -1930 -679 -2829 -228
-455 228 -854 587 -1116 1004 -203 323 -357 734 -403 1076 -29 217 -38 530
-19 667 17 127 16 126 73 16 116 -221 276 -432 491 -648 262 -264 510 -443
830 -600 480 -236 921 -334 1445 -322 549 13 1034 154 1518 441 305 181 559
403 822 716 171 204 367 549 477 840 238 628 265 1323 77 1970 -89 306 -271
678 -356 730 -64 39 -149 15 -197 -56 -31 -45 -25 -92 27 -211 22 -48 67 -150
101 -225 164 -370 221 -653 221 -1098 0 -389 -23 -551 -116 -842 -109 -338
-272 -645 -480 -908 -94 -118 -330 -352 -444 -440 -236 -182 -518 -344 -755
-433 -386 -145 -879 -197 -1336 -141 -340 41 -674 150 -974 317 -172 96 -345
215 -345 236 0 3 48 4 107 2 193 -6 533 35 768 93 1211 298 2116 1292 2316
2541 27 168 37 548 20 732 -60 635 -317 1255 -707 1703 -105 121 -344 356
-454 446 -396 326 -936 557 -1492 639 -88 12 -411 45 -454 45 -7 0 -37 -27
-67 -60z"/>
</g>
</svg>
