<?xml version="1.0" standalone="no"?>
<!DOCTYPE svg PUBLIC "-//W3C//DTD SVG 20010904//EN"
 "http://www.w3.org/TR/2001/REC-SVG-20010904/DTD/svg10.dtd">
<svg version="1.0" xmlns="http://www.w3.org/2000/svg"
 width="500.000000pt" height="500.000000pt" viewBox="0 0 500.000000 500.000000"
 preserveAspectRatio="xMidYMid meet">
<metadata>
Created by potrace 1.11, written by Peter Selinger 2001-2013
</metadata>
<g transform="translate(0.000000,500.000000) scale(0.100000,-0.100000)"
fill="#000000" stroke="none">
<path d="M3314 4829 c134 -220 222 -427 301 -709 68 -240 86 -368 100 -680 6
-133 -7 -359 -21 -382 -4 -5 -34 39 -68 99 -201 353 -499 683 -846 940 -398
294 -874 491 -1366 564 l-142 21 -64 -38 c-65 -39 -204 -131 -224 -149 -6 -5
-29 -23 -50 -40 -21 -16 -55 -44 -74 -62 l-35 -32 200 0 c215 -1 294 -8 450
-41 300 -65 604 -178 857 -322 133 -76 273 -169 273 -183 0 -13 -85 -23 -211
-24 -612 -6 -1317 -261 -1804 -652 -131 -104 -400 -371 -509 -504 l-82 -99 2
-151 c0 -90 9 -198 20 -270 10 -66 19 -124 19 -130 0 -5 21 26 46 70 271 475
686 870 1179 1121 81 41 151 74 157 74 5 0 -6 -28 -26 -62 -174 -302 -305
-641 -383 -996 -25 -112 -26 -134 -30 -516 -6 -454 1 -545 52 -754 54 -220
165 -546 198 -579 33 -33 427 -213 467 -213 5 0 -19 48 -52 106 -163 284 -290
652 -333 964 -22 158 -32 582 -15 678 l12 74 60 -109 c125 -225 274 -419 483
-628 485 -486 1079 -787 1755 -889 l95 -15 95 57 c52 31 97 60 98 64 2 5 10 8
17 8 7 0 15 3 17 8 2 4 37 32 78 63 41 32 91 71 110 88 l35 30 -136 1 c-331 1
-676 66 -979 186 -206 82 -526 260 -627 349 l-38 34 60 -5 c129 -13 549 34
775 86 655 149 1272 535 1696 1060 102 126 97 112 90 257 -8 156 -11 198 -26
288 -18 117 -17 117 -74 19 -279 -477 -670 -841 -1172 -1093 -77 -38 -141 -67
-143 -66 -2 2 20 47 48 100 198 366 303 661 371 1035 51 284 44 766 -16 1114
-21 123 -92 366 -153 521 -50 130 -51 130 -103 161 -69 41 -252 128 -303 144
-22 7 -44 16 -50 20 -5 4 -19 10 -30 12 -11 3 -29 9 -39 14 -17 6 -16 1 8 -37z"/>
</g>
</svg>
